<svg xmlns="http://www.w3.org/2000/svg" viewBox="0 0 400 400">
  <defs>
    <linearGradient id="bg1" x1="0" y1="0" x2="1" y2="1">
      <stop offset="0" stop-color="#20304F"/>
      <stop offset="1" stop-color="#14213A"/>
    </linearGradient>
  </defs>
  <rect width="400" height="400" fill="url(#bg1)"/>
  <g opacity=".08" fill="#F2D68A">
    <circle cx="40" cy="40" r="3"/><circle cx="90" cy="30" r="3"/><circle cx="360" cy="50" r="3"/>
    <circle cx="330" cy="90" r="3"/><circle cx="60" cy="360" r="3"/><circle cx="20" cy="320" r="3"/>
  </g>
  <!-- sun / halo -->
  <circle cx="200" cy="175" r="120" fill="#D9A441" opacity=".12"/>
  <!-- open book -->
  <g>
    <path d="M90 250 Q200 220 310 250 L310 275 Q200 245 90 275 Z" fill="#D9A441"/>
    <path d="M90 250 Q200 220 200 220 L200 195 Q90 225 90 225 Z" fill="#F2D68A"/>
    <path d="M310 250 Q200 220 200 220 L200 195 Q310 225 310 225 Z" fill="#F7E6B0"/>
    <path d="M90 225 Q200 195 200 195" stroke="#14213A" stroke-width="3" fill="none" opacity=".3"/>
    <path d="M310 225 Q200 195 200 195" stroke="#14213A" stroke-width="3" fill="none" opacity=".3"/>
  </g>
  <!-- graduation cap -->
  <g transform="translate(200,120)">
    <polygon points="0,-18 62,4 0,26 -62,4" fill="#F2D68A"/>
    <rect x="-14" y="6" width="28" height="26" rx="4" fill="#D9A441"/>
    <line x1="46" y1="10" x2="46" y2="42" stroke="#F7E6B0" stroke-width="3"/>
    <circle cx="46" cy="46" r="5" fill="#F7E6B0"/>
  </g>
  <text x="200" y="330" text-anchor="middle" font-family="Georgia, serif" font-size="22" fill="#F7EFDD">Education</text>
</svg>
