<svg xmlns="http://www.w3.org/2000/svg" viewBox="0 0 400 400">
  <defs>
    <linearGradient id="bg3" x1="0" y1="0" x2="1" y2="1">
      <stop offset="0" stop-color="#14213A"/>
      <stop offset="1" stop-color="#20304F"/>
    </linearGradient>
  </defs>
  <rect width="400" height="400" fill="url(#bg3)"/>
  <g opacity=".1" fill="#F2D68A">
    <circle cx="60" cy="50" r="3"/><circle cx="340" cy="60" r="3"/><circle cx="360" cy="320" r="3"/>
    <circle cx="40" cy="330" r="3"/>
  </g>
  <circle cx="200" cy="150" r="110" fill="#D9A441" opacity=".14"/>
  <!-- sun above the home -->
  <circle cx="200" cy="120" r="30" fill="#F2D68A"/>
  <!-- simple house -->
  <polygon points="140,240 200,190 260,240" fill="#D9A441"/>
  <rect x="150" y="240" width="100" height="80" fill="#F7E6B0"/>
  <rect x="182" y="270" width="36" height="50" fill="#14213A"/>
  <rect x="160" y="255" width="18" height="18" fill="#14213A" opacity=".6"/>
  <rect x="222" y="255" width="18" height="18" fill="#14213A" opacity=".6"/>
  <!-- circle of people holding hands -->
  <g fill="#F7EFDD">
    <circle cx="90" cy="330" r="12"/><rect x="80" y="342" width="20" height="30" rx="6"/>
    <circle cx="150" cy="350" r="12"/><rect x="140" y="362" width="20" height="30" rx="6"/>
    <circle cx="250" cy="350" r="12"/><rect x="240" y="362" width="20" height="30" rx="6"/>
    <circle cx="310" cy="330" r="12"/><rect x="300" y="342" width="20" height="30" rx="6"/>
    <path d="M100 358 q25 16 40 0" stroke="#F7EFDD" stroke-width="6" fill="none" stroke-linecap="round"/>
    <path d="M170 372 q40 14 70 0" stroke="#F7EFDD" stroke-width="6" fill="none" stroke-linecap="round"/>
    <path d="M270 358 q25 16 40 0" stroke="#F7EFDD" stroke-width="6" fill="none" stroke-linecap="round"/>
  </g>
  <text x="200" y="392" text-anchor="middle" font-family="Georgia, serif" font-size="20" fill="#F7EFDD">Community</text>
</svg>
