<svg xmlns="http://www.w3.org/2000/svg" viewBox="0 0 100 100" width="100" height="100" role="img" aria-label="IOCT balance scale emblem">
  <defs>
    <linearGradient id="g" x1="0" y1="0" x2="1" y2="1">
      <stop offset="0" stop-color="#F2D68A"/>
      <stop offset="1" stop-color="#D9A441"/>
    </linearGradient>
  </defs>
  <circle cx="50" cy="50" r="48" fill="#14213A"/>
  <circle cx="50" cy="50" r="48" fill="none" stroke="url(#g)" stroke-width="2"/>
  <line x1="50" y1="24" x2="50" y2="72" stroke="url(#g)" stroke-width="3" stroke-linecap="round"/>
  <line x1="28" y1="34" x2="72" y2="34" stroke="url(#g)" stroke-width="3" stroke-linecap="round"/>
  <line x1="28" y1="34" x2="20" y2="52" stroke="url(#g)" stroke-width="2.5" stroke-linecap="round"/>
  <line x1="28" y1="34" x2="36" y2="52" stroke="url(#g)" stroke-width="2.5" stroke-linecap="round"/>
  <path d="M20 52 a8 8 0 0 0 16 0 Z" fill="url(#g)"/>
  <line x1="72" y1="34" x2="64" y2="52" stroke="url(#g)" stroke-width="2.5" stroke-linecap="round"/>
  <line x1="72" y1="34" x2="80" y2="52" stroke="url(#g)" stroke-width="2.5" stroke-linecap="round"/>
  <path d="M64 52 a8 8 0 0 0 16 0 Z" fill="url(#g)"/>
  <circle cx="50" cy="24" r="4" fill="url(#g)"/>
  <path d="M38 74 h24 l-4 8 h-16 Z" fill="url(#g)"/>
  <rect x="34" y="80" width="32" height="5" rx="2.5" fill="url(#g)"/>
</svg>
